<?xml version="1.0" encoding="UTF-8"?>
<svg xmlns="http://www.w3.org/2000/svg" xmlns:xlink="http://www.w3.org/1999/xlink" width="512" height="512" viewBox="0 0 54 60" version="1.1"><!-- Generator: Sketch 51.3 (57544) - http://www.bohemiancoding.com/sketch --><title>020 - Lift</title><desc>Created with Sketch.</desc><defs/><g id="Page-1" stroke="none" stroke-width="1" fill="none" fill-rule="evenodd"><g id="020---Lift" fill="#000000" fill-rule="nonzero"><path d="M5,0 C2.23994685,0.00330611633 0.00330611633,2.23994685 0,5 L0,55 C0.00330611633,57.7600532 2.23994685,59.9966939 5,60 L49,60 C51.7600532,59.9966939 53.9966939,57.7600532 54,55 L54,5 C53.9966939,2.23994685 51.7600532,0.00330611633 49,0 L5,0 Z M14,57 L14,36 C14,35.4477153 13.5522847,35 13,35 C12.4477153,35 12,35.4477153 12,36 L12,42 C12,42.5522847 11.5522847,43 11,43 C10.4477153,43 10,42.5522847 10,42 L10,33 C10,31.8954305 10.8954305,31 12,31 L22,31 C23.1045695,31 24,31.8954305 24,33 L24,42 C24,42.5522847 23.5522847,43 23,43 C22.4477153,43 22,42.5522847 22,42 L22,36 C22,35.4477153 21.5522847,35 21,35 C20.4477153,35 20,35.4477153 20,36 L20,57 C20,57.5522847 19.5522847,58 19,58 C18.4477153,58 18,57.5522847 18,57 L18,45 C18,44.4477153 17.5522847,44 17,44 C16.4477153,44 16,44.4477153 16,45 L16,57 C16,57.5522847 15.5522847,58 15,58 C14.4477153,58 14,57.5522847 14,57 Z M34,57 L34,36 C34,35.4477153 33.5522847,35 33,35 C32.4477153,35 32,35.4477153 32,36 L32,42 C32,42.5522847 31.5522847,43 31,43 C30.4477153,43 30,42.5522847 30,42 L30,33 C30,31.8954305 30.8954305,31 32,31 L42,31 C43.1045695,31 44,31.8954305 44,33 L44,42 C44,42.5522847 43.5522847,43 43,43 C42.4477153,43 42,42.5522847 42,42 L42,36 C42,35.4477153 41.5522847,35 41,35 C40.4477153,35 40,35.4477153 40,36 L40,57 C40,57.5522847 39.5522847,58 39,58 C38.4477153,58 38,57.5522847 38,57 L38,45 C38,44.4477153 37.5522847,44 37,44 C36.4477153,44 36,44.4477153 36,45 L36,57 C36,57.5522847 35.5522847,58 35,58 C34.4477153,58 34,57.5522847 34,57 Z M41.816,58 C41.9344378,57.679743 41.9966856,57.3414397 42,57 L42,44.816 C42.320257,44.9344378 42.6585603,44.9966856 43,45 C44.6568542,45 46,43.6568542 46,42 L46,33 C46,30.790861 44.209139,29 42,29 L32,29 C29.790861,29 28,30.790861 28,33 L28,42 C28,43.6568542 29.3431458,45 31,45 C31.3414397,44.9966856 31.679743,44.9344378 32,44.816 L32,57 C32.0033144,57.3414397 32.0655622,57.679743 32.184,58 L21.816,58 C21.9344378,57.679743 21.9966856,57.3414397 22,57 L22,44.816 C22.320257,44.9344378 22.6585603,44.9966856 23,45 C24.6568542,45 26,43.6568542 26,42 L26,33 C26,30.790861 24.209139,29 22,29 L12,29 C9.790861,29 8,30.790861 8,33 L8,42 C8,43.6568542 9.34314575,45 11,45 C11.3414397,44.9966856 11.679743,44.9344378 12,44.816 L12,57 C12.0033144,57.3414397 12.0655622,57.679743 12.184,58 L6,58 L6,19 C6,18.4477153 6.44771525,18 7,18 L47,18 C47.5522847,18 48,18.4477153 48,19 L48,58 L41.816,58 Z M52,5 L52,55 C51.9947486,56.2667854 51.1943509,57.3937454 50,57.816 L50,19 C50,17.3431458 48.6568542,16 47,16 L7,16 C5.34314575,16 4,17.3431458 4,19 L4,57.816 C2.80564913,57.3937454 2.00525139,56.2667854 2,55 L2,5 C2,3.34314575 3.34314575,2 5,2 L49,2 C50.6568542,2 52,3.34314575 52,5 Z" id="Shape"/><path d="M37,4 L17,4 C15.3431458,4 14,5.34314575 14,7 L14,11 C14,12.6568542 15.3431458,14 17,14 L37,14 C38.6568542,14 40,12.6568542 40,11 L40,7 C40,5.34314575 38.6568542,4 37,4 Z M38,11 C38,11.5522847 37.5522847,12 37,12 L17,12 C16.4477153,12 16,11.5522847 16,11 L16,7 C16,6.44771525 16.4477153,6 17,6 L37,6 C37.5522847,6 38,6.44771525 38,7 L38,11 Z" id="Shape"/><path d="M24.293,7.293 L23,8.586 L21.707,7.293 C21.4559255,7.03304342 21.0841221,6.9287874 20.7344927,7.02030284 C20.3848632,7.11181828 20.1118183,7.38486324 20.0203028,7.73449268 C19.9287874,8.08412211 20.0330434,8.45592553 20.293,8.707 L22.293,10.707 C22.6834999,11.0973819 23.3165001,11.0973819 23.707,10.707 L25.707,8.707 C25.9669566,8.45592553 26.0712126,8.08412211 25.9796972,7.73449268 C25.8881817,7.38486324 25.6151368,7.11181828 25.2655073,7.02030284 C24.9158779,6.9287874 24.5440745,7.03304342 24.293,7.293 Z" id="Shape"/><path d="M31.707,7.293 C31.3165001,6.90261806 30.6834999,6.90261806 30.293,7.293 L28.293,9.293 C27.9140278,9.68537889 27.9194476,10.3090848 28.3051814,10.6948186 C28.6909152,11.0805524 29.3146211,11.0859722 29.707,10.707 L31,9.414 L32.293,10.707 C32.6853789,11.0859722 33.3090848,11.0805524 33.6948186,10.6948186 C34.0805524,10.3090848 34.0859722,9.68537889 33.707,9.293 L31.707,7.293 Z" id="Shape"/><path d="M17,20 C14.790861,20 13,21.790861 13,24 C13,26.209139 14.790861,28 17,28 C19.209139,28 21,26.209139 21,24 C21,21.790861 19.209139,20 17,20 Z M17,26 C15.8954305,26 15,25.1045695 15,24 C15,22.8954305 15.8954305,22 17,22 C18.1045695,22 19,22.8954305 19,24 C19,25.1045695 18.1045695,26 17,26 Z" id="Shape"/><path d="M37,20 C34.790861,20 33,21.790861 33,24 C33,26.209139 34.790861,28 37,28 C39.209139,28 41,26.209139 41,24 C41,21.790861 39.209139,20 37,20 Z M37,26 C35.8954305,26 35,25.1045695 35,24 C35,22.8954305 35.8954305,22 37,22 C38.1045695,22 39,22.8954305 39,24 C39,25.1045695 38.1045695,26 37,26 Z" id="Shape"/></g></g></svg>
