<svg height="512pt" viewBox="0 0 512 512" width="512pt" xmlns="http://www.w3.org/2000/svg"><path d="m437.019531 74.980469c-48.351562-48.351563-112.640625-74.980469-181.019531-74.980469-50.71875 0-99.832031 14.875-142.027344 43.011719-4.597656 3.066406-5.835937 9.273437-2.773437 13.871093 3.066406 4.59375 9.273437 5.832032 13.867187 2.769532 38.898438-25.941406 84.175782-39.652344 130.933594-39.652344 130.132812 0 236 105.871094 236 236s-105.867188 236-236 236c-130.128906 0-236-105.867188-236-236 0-54.261719 18.90625-107.285156 53.230469-149.304688 3.496093-4.277343 2.859375-10.578124-1.417969-14.070312-4.277344-3.496094-10.574219-2.859375-14.070312 1.417969-37.234376 45.582031-57.742188 103.097656-57.742188 161.957031 0 68.378906 26.628906 132.667969 74.980469 181.019531 48.351562 48.351563 112.640625 74.980469 181.019531 74.980469 68.382812 0 132.667969-26.628906 181.019531-74.980469 48.351563-48.351562 74.980469-112.640625 74.980469-181.019531s-26.628906-132.667969-74.980469-181.019531zm0 0"/><path d="m414.710938 97.957031c-.105469-.113281-.207032-.234375-.320313-.347656-.078125-.082031-.164063-.148437-.242187-.222656-41.609376-41.46875-98.378907-65.386719-158.148438-65.386719-59.832031 0-116.082031 23.300781-158.390625 65.609375-42.308594 42.304687-65.609375 98.558594-65.609375 158.390625 0 59.828125 23.296875 116.078125 65.601562 158.386719.003907 0 .003907.003906.007813.003906 0 .003906.003906.003906.003906.007813 42.308594 42.304687 98.558594 65.601562 158.386719 65.601562 59.832031 0 116.078125-23.296875 158.386719-65.601562 0-.003907.003906-.003907.007812-.007813 0 0 .003907-.003906.003907-.003906 42.304687-42.308594 65.601562-98.558594 65.601562-158.386719 0-19.566406-2.566406-39.074219-7.632812-57.976562-1.429688-5.332032-6.90625-8.5-12.246094-7.070313-5.335938 1.429687-8.5 6.910156-7.070313 12.246094 4.609375 17.21875 6.949219 34.980469 6.949219 52.800781 0 52.652344-20.050781 100.710938-52.917969 136.9375l-28.265625-28.261719c24.0625-27.121093 38.269532-60.945312 40.777344-97.070312l14.949219-1.667969c5.0625-.5625 8.894531-4.84375 8.894531-9.9375s-3.828125-9.375-8.894531-9.9375l-14.949219-1.664062c-2.507812-36.125-16.710938-69.949219-40.777344-97.074219l28.320313-28.320313c5.765625 6.363282 11.171875 13.109375 16.152343 20.246094 3.160157 4.527344 9.394532 5.636719 13.925782 2.476562 4.527344-3.160156 5.636718-9.394531 2.476562-13.921874-7.507812-10.753907-15.882812-20.714844-24.980468-29.847657zm-21.726563 6.914063-28.308594 28.3125c-30.007812-26.625-68.21875-41.183594-108.675781-41.183594s-78.667969 14.558594-108.675781 41.183594l-28.261719-28.265625c36.226562-32.867188 84.285156-52.917969 136.9375-52.917969 51.136719 0 99.851562 19.234375 136.984375 52.871094zm-288.066406 14.191406 28.265625 28.261719c-26.625 30.007812-41.183594 68.21875-41.183594 108.675781s14.558594 78.667969 41.183594 108.675781l-28.261719 28.261719c-32.867187-36.226562-52.921875-84.285156-52.921875-136.9375s20.054688-100.710938 52.917969-136.9375zm287.3125 90.082031-11.632813 3.117188c-5.335937 1.429687-8.5 6.910156-7.070312 12.246093 1.195312 4.46875 5.238281 7.414063 9.652344 7.414063.855468 0 1.730468-.109375 2.59375-.34375l11.609374-3.109375c.867188 4.503906 1.523438 9.0625 1.960938 13.667969l-142.234375-15.851563c-7.480469-.832031-14.8125 1.589844-20.660156 6.824219-6.40625 5.726563-10.226563 14.285156-10.226563 22.890625s3.820313 17.164062 10.222656 22.890625c5.09375 4.558594 11.316407 6.984375 17.777344 6.984375.957032 0 1.917969-.050781 2.882813-.160156l142.234375-15.851563c-.4375 4.605469-1.09375 9.164063-1.960938 13.667969l-11.605468-3.113281c-5.339844-1.429688-10.816407 1.738281-12.246094 7.074219-1.429688 5.332031 1.734375 10.816406 7.070312 12.246093l11.632813 3.117188c-5.960938 17.382812-15.261719 33.53125-27.582031 47.652343l-8.472657-8.472656c-3.90625-3.90625-10.234375-3.90625-14.140625 0-3.90625 3.902344-3.90625 10.234375 0 14.140625l15.78125 15.785157c.003906.003906.003906.003906.007813.003906 0 .003906 0 .003906.003906.007812l35.109375 35.109375c-36.230469 32.863281-84.285156 52.917969-136.9375 52.917969-52.65625 0-100.710938-20.054688-136.9375-52.917969l35.109375-35.113281s0 0 .003906-.003906c0 0 0 0 0-.003906l15.785157-15.785157c3.90625-3.902343 3.90625-10.234375 0-14.140625-3.902344-3.90625-10.234376-3.90625-14.140626 0l-8.46875 8.464844c-12.476562-14.324219-21.644531-30.546875-27.503906-47.667969l11.554688-3.09375c5.332031-1.429687 8.5-6.914062 7.070312-12.25-1.429687-5.335937-6.914062-8.496093-12.25-7.070312l-11.527344 3.089843c-3.507812-18.160156-3.507812-36.863281 0-55.019531l11.527344 3.089844c.867188.230469 1.738282.339844 2.597656.339844 4.414063 0 8.453126-2.945313 9.652344-7.414063 1.429688-5.332031-1.738281-10.816406-7.070312-12.246094l-11.554688-3.097656c5.859375-17.117187 15.027344-33.339844 27.503906-47.667968l8.46875 8.46875c1.953126 1.953124 4.511719 2.929687 7.070313 2.929687s5.117187-.976563 7.070313-2.929687c3.90625-3.90625 3.90625-10.238282 0-14.144532l-8.472657-8.46875c14.121094-12.320312 30.269531-21.621094 47.652344-27.582031l3.117187 11.632813c1.195313 4.46875 5.238282 7.414062 9.652344 7.414062.855469 0 1.726563-.109375 2.59375-.34375 5.335938-1.429688 8.5-6.910156 7.070313-12.246094l-3.109375-11.605468c8.980468-1.730469 18.1875-2.621094 27.53125-2.621094s18.550781.890625 27.53125 2.621094l-3.113282 11.605468c-1.429687 5.335938 1.738282 10.816406 7.074219 12.246094.863281.234375 1.734375.34375 2.59375.34375 4.414063 0 8.453125-2.945312 9.652344-7.414062l3.117187-11.632813c17.382813 5.960937 33.53125 15.261719 47.648438 27.582031l-8.46875 8.472656c-3.90625 3.902344-3.90625 10.234376 0 14.140626 1.949219 1.953124 4.511719 2.929687 7.070312 2.929687 2.558594 0 5.117188-.976563 7.070313-2.929687l8.472656-8.472657c12.324219 14.125 21.625 30.273438 27.585938 47.65625zm-49.066407 46.855469-88.273437 9.839844c-2.234375.25-4.007813-.871094-5.105469-1.851563-2.199218-1.964843-3.5625-5.027343-3.5625-7.988281s1.363282-6.023438 3.5625-7.988281c.992188-.886719 2.539063-1.886719 4.476563-1.886719.203125 0 .414062.011719.628906.035156zm0 0"/><path d="m196 364.894531c0 14.335938 11.664062 26 26 26h68c14.335938 0 26-11.664062 26-26 0-14.335937-11.664062-26-26-26h-68c-14.335938 0-26 11.664063-26 26zm100 0c0 3.253907-2.746094 6-6 6h-68c-3.253906 0-6-2.746093-6-6 0-3.25 2.746094-6 6-6h68c3.253906 0 6 2.75 6 6zm0 0"/><path d="m221.234375 400.894531h-.234375c-5.523438 0-10 4.476563-10 10 0 5.523438 4.476562 10 10 10h.234375c5.523437 0 10-4.476562 10-10 0-5.523437-4.476563-10-10-10zm0 0"/><path d="m291 400.894531h-41.035156c-5.523438 0-10 4.476563-10 10 0 5.523438 4.476562 10 10 10h41.035156c5.523438 0 10-4.476562 10-10 0-5.523437-4.476562-10-10-10zm0 0"/><path d="m85.300781 88.867188c2.488281 0 4.984375-.925782 6.925781-2.789063l.144532-.140625c3.933594-3.859375 3.992187-10.152344.152344-14.101562-3.84375-3.945313-10.171876-4.027344-14.132813-.199219l-.023437.015625c-3.980469 3.828125-4.105469 10.160156-.28125 14.140625 1.964843 2.042969 4.585937 3.074219 7.214843 3.074219zm0 0"/><path d="m436.96875 161.832031.117188.230469c1.769531 3.457031 5.273437 5.445312 8.910156 5.445312 1.53125 0 3.089844-.351562 4.546875-1.097656 4.917969-2.515625 6.863281-8.542968 4.347656-13.457031l-.140625-.273437c-2.527344-4.910157-8.558594-6.839844-13.46875-4.316407-4.910156 2.53125-6.839844 8.558594-4.3125 13.46875zm0 0"/></svg>