<?xml version="1.0"?>
<svg xmlns="http://www.w3.org/2000/svg" height="512px" viewBox="0 0 496 496" width="512px"><g><path d="m248 416c114.6875 0 208-93.304688 208-208s-93.3125-208-208-208-208 93.304688-208 208 93.3125 208 208 208zm0-400c105.863281 0 192 86.136719 192 192s-86.136719 192-192 192-192-86.136719-192-192 86.136719-192 192-192zm0 0" data-original="#000000" class="active-path" data-old_color="#FDFBFB" fill="#FFFFFF"/><path d="m248 384c97.046875 0 176-78.953125 176-176s-78.953125-176-176-176-176 78.953125-176 176 78.953125 176 176 176zm-128.710938-131.34375-21.824218 9.039062c-5.152344-14.40625-8.265625-29.726562-9.066406-45.695312h39.601562v-16h-39.59375c.792969-15.960938 3.90625-31.289062 9.066406-45.695312l21.824219 9.039062 6.128906-14.785156-21.808593-9.03125c6.75-14.175782 15.496093-27.175782 25.917968-38.695313l27.960938 27.96875 11.3125-11.3125-27.960938-27.96875c11.511719-10.421875 24.511719-19.167969 38.6875-25.917969l9.03125 21.804688 14.785156-6.125-9.039062-21.824219c14.398438-5.144531 29.726562-8.257812 45.6875-9.050781v39.59375h16v-39.59375c15.960938.792969 31.289062 3.90625 45.695312 9.066406l-9.039062 21.824219 14.785156 6.128906 9.03125-21.808593c14.175782 6.75 27.175782 15.496093 38.6875 25.917968l-27.960937 27.96875 11.3125 11.3125 27.960937-27.96875c10.421875 11.511719 19.175782 24.519532 25.917969 38.695313l-21.804687 9.03125 6.125 14.785156 21.824218-9.039063c5.152344 14.40625 8.265625 29.726563 9.066406 45.695313h-39.601562v16h39.59375c-.792969 15.960937-3.90625 31.289063-9.066406 45.695313l-21.824219-9.039063-6.128906 14.785156 21.808593 9.03125c-6.125 12.878907-13.855468 24.824219-23.046874 35.535157h-82.144532c-1.269531-6.238282-4.128906-11.847657-7.945312-16.664063l-14.550782-160.085937c-.792968-8.722657-7.96875-15.273438-16.695312-15.273438s-15.902344 6.550781-16.6875 15.238281l-14.558594 160.097657c-3.816406 4.824218-6.675781 10.425781-7.945312 16.664062h-82.152344c-9.191406-10.710938-16.921875-22.65625-23.046875-35.535156l21.804687-9.03125zm128.710938 43.34375c10.414062 0 19.214844 6.710938 22.527344 16h-45.046875c3.304687-9.289062 12.105469-16 22.519531-16zm-14.023438-13.328125 13.269532-145.976563c.074218-.800781 1.441406-.800781 1.507812 0l13.269532 145.976563c-4.375-1.648437-9.070313-2.671875-14.023438-2.671875s-9.648438 1.023438-14.023438 2.671875zm-91.457031 45.328125h210.953125c-28.191406 24.816406-65.046875 40-105.472656 40s-77.28125-15.183594-105.480469-40zm0 0" data-original="#000000" class="active-path" data-old_color="#FDFBFB" fill="#FFFFFF"/><path d="m448 304v176h-16v-104h-48v104h-16v-64h-48v64h-16v-32h-48v32h-16v16h256v-192zm-48 88h16v88h-16zm-64 40h16v48h-16zm-64 32h16v16h-16zm208 16h-16v-160h16zm0 0" data-original="#000000" class="active-path" data-old_color="#FDFBFB" fill="#FFFFFF"/><path d="m114.457031 452.351562-20.503906-68.351562h-93.953125v16h82.046875l27.496094 91.648438 30.984375-51.648438h51.472656v-16h-60.527344zm0 0" data-original="#000000" class="active-path" data-old_color="#FDFBFB" fill="#FFFFFF"/><path d="m32 432h16v16h-16zm0 0" data-original="#000000" class="active-path" data-old_color="#FDFBFB" fill="#FFFFFF"/><path d="m0 432h16v16h-16zm0 0" data-original="#000000" class="active-path" data-old_color="#FDFBFB" fill="#FFFFFF"/><path d="m64 432h16v16h-16zm0 0" data-original="#000000" class="active-path" data-old_color="#FDFBFB" fill="#FFFFFF"/></g> </svg>
