<svg height="480pt" viewBox="-48 0 480 480" width="480pt" xmlns="http://www.w3.org/2000/svg"><path d="m40 144h304c4.417969 0 8-3.582031 8-8v-96c0-4.417969-3.582031-8-8-8h-304c-4.417969 0-8 3.582031-8 8v96c0 4.417969 3.582031 8 8 8zm8-96h288v80h-288zm0 0"/><path d="m376 0h-368c-4.417969 0-8 3.582031-8 8v368c0 4.417969 3.582031 8 8 8h16v88c0 4.417969 3.582031 8 8 8h320c4.417969 0 8-3.582031 8-8v-88h16c4.417969 0 8-3.582031 8-8v-368c0-4.417969-3.582031-8-8-8zm-32 464h-304v-80h304zm24-96h-352v-352h352zm0 0"/><path d="m176 80h32v16h-32zm0 0"/><path d="m224 80h32v16h-32zm0 0"/><path d="m128 80h32v16h-32zm0 0"/><path d="m64 232h256c17.671875 0 32-14.328125 32-32s-14.328125-32-32-32h-256c-17.671875 0-32 14.328125-32 32s14.328125 32 32 32zm0-48h256c8.835938 0 16 7.164062 16 16s-7.164062 16-16 16h-256c-8.835938 0-16-7.164062-16-16s7.164062-16 16-16zm0 0"/><path d="m64 192h256v16h-256zm0 0"/><path d="m184 256h16v96h-16zm0 0"/><path d="m216 256h16v96h-16zm0 0"/><path d="m248 256h16v96h-16zm0 0"/><path d="m280 256h16v96h-16zm0 0"/><path d="m312 256h16v96h-16zm0 0"/><path d="m152 256h16v96h-16zm0 0"/><path d="m120 256h16v96h-16zm0 0"/><path d="m88 256h16v96h-16zm0 0"/><path d="m56 256h16v96h-16zm0 0"/><path d="m144 456h32c4.417969 0 8-3.582031 8-8v-48c0-4.417969-3.582031-8-8-8h-32c-4.417969 0-8 3.582031-8 8v48c0 4.417969 3.582031 8 8 8zm8-48h16v32h-16zm0 0"/><path d="m80 456h32c4.417969 0 8-3.582031 8-8v-48c0-4.417969-3.582031-8-8-8h-32c-4.417969 0-8 3.582031-8 8v48c0 4.417969 3.582031 8 8 8zm8-48h16v32h-16zm0 0"/><path d="m208 456h32c4.417969 0 8-3.582031 8-8v-48c0-4.417969-3.582031-8-8-8h-32c-4.417969 0-8 3.582031-8 8v48c0 4.417969 3.582031 8 8 8zm8-48h16v32h-16zm0 0"/><path d="m272 456h32c4.417969 0 8-3.582031 8-8v-48c0-4.417969-3.582031-8-8-8h-32c-4.417969 0-8 3.582031-8 8v48c0 4.417969 3.582031 8 8 8zm8-48h16v32h-16zm0 0"/></svg>